<?xml version="1.0" encoding="UTF-8"?>
<svg width="128px" height="128px" viewBox="0 0 128 128" version="1.1" xmlns="http://www.w3.org/2000/svg" xmlns:xlink="http://www.w3.org/1999/xlink">
    <!-- Generator: Sketch 52.5 (67469) - http://www.bohemiancoding.com/sketch -->
    <title>Classic-Agenda</title>
    <desc>Created with Sketch.</desc>
    <g id="Classic-Agenda" stroke="none" stroke-width="1" fill-rule="evenodd">
        <path d="M89.6006,99.6807 C92.2770305,99.6807 94.4466,97.5111305 94.4466,94.8347 L94.4466,31.8467 C94.4466,29.169379 92.2771399,26.9997 89.6006,26.9997 L35.0286,26.9997 C34.4601695,26.9997 33.9996,27.4602695 33.9996,28.0287 L33.9996,98.6517 C33.9996,99.2201305 34.4601695,99.6807 35.0286,99.6807 L89.6006,99.6807 Z M89.6006,103.6807 L35.0286,103.6807 C32.2510305,103.6807 29.9996,101.429269 29.9996,98.6517 L29.9996,28.0287 C29.9996,25.2511305 32.2510305,22.9997 35.0286,22.9997 L89.6006,22.9997 C94.4863693,22.9997 98.4466,26.9603303 98.4466,31.8467 L98.4466,94.8347 C98.4466,99.7202695 94.4861695,103.6807 89.6006,103.6807 Z M39.1129,33.2275 C39.1129,32.1229305 40.0083305,31.2275 41.1129,31.2275 C42.2174695,31.2275 43.1129,32.1229305 43.1129,33.2275 L43.1129,93.4535 C43.1129,94.5580695 42.2174695,95.4535 41.1129,95.4535 C40.0083305,95.4535 39.1129,94.5580695 39.1129,93.4535 L39.1129,33.2275 Z M83.8223,63.3403 C83.8223,54.8718695 76.9567305,48.0063 68.4883,48.0063 C60.0198695,48.0063 53.1543,54.8718695 53.1543,63.3403 C53.1543,71.8087305 60.0198695,78.6743 68.4883,78.6743 C76.9567305,78.6743 83.8223,71.8087305 83.8223,63.3403 Z M87.8223,63.3403 C87.8223,74.0178695 79.1658695,82.6743 68.4883,82.6743 C57.8107305,82.6743 49.1543,74.0178695 49.1543,63.3403 C49.1543,52.6627305 57.8107305,44.0063 68.4883,44.0063 C79.1658695,44.0063 87.8223,52.6627305 87.8223,63.3403 Z M74.8026578,66.7172307 C75.5836267,67.498359 75.5834975,68.764689 74.8023693,69.5456578 C74.021241,70.3266267 72.754911,70.3264975 71.9739422,69.5453693 L67.0739422,64.6443693 C66.6989577,64.2693082 66.4883,63.7606623 66.4883,63.2303 L66.4883,53.3003 C66.4883,52.1957305 67.3837305,51.3003 68.4883,51.3003 C69.5928695,51.3003 70.4883,52.1957305 70.4883,53.3003 L70.4883,62.4019924 L74.8026578,66.7172307 Z" id="Combined-Shape" fill-rule="nonzero"></path>
    </g>
</svg>